<svg xmlns="http://www.w3.org/2000/svg" width="165" height="28" viewBox="0 0 165 28" fill="none">
    <path
        d="M126.068 7.11989H117.641V3.98419H128.533C128.791 3.98419 129.012 3.76285 129.012 3.50461V0H113.042V19.2938H115.765L117.641 17.4124V11.2516H125.001V18.6298H118.856L116.979 20.5112V22.8353H125.001C128.386 22.8353 130.484 20.585 130.484 14.7194C130.484 9.73913 128.35 7.11989 126.068 7.11989Z"
        fill="#020203" />
    <path d="M112.674 20.991H110.098V26.2294H115.286V22.8355V20.991H112.674Z" fill="#E50071" />
    <path d="M0 22.8354H4.82047V11.2517H9.82493V22.8354H14.6454V7.12H0V22.8354Z" fill="#020203" />
    <path
        d="M25.0593 6.78809C20.4964 6.78809 16.6694 9.99757 16.6694 15.0147C16.6694 20.2163 20.1652 23.3151 25.2432 23.3151C28.371 23.3151 31.646 21.6919 33.0443 18.0028H28.6286C28.0767 18.9251 26.8991 19.5891 25.0961 19.5891C23.3666 19.5891 21.6371 18.5562 21.4899 16.3059H33.1179C33.4123 10.7723 30.2109 6.78809 25.0593 6.78809ZM25.0593 10.4772C26.6784 10.4772 28.0031 11.2887 28.2974 12.9119H21.6739C22.1155 11.215 23.5138 10.4772 25.0593 10.4772Z"
        fill="#020203" />
    <path
        d="M44.746 6.86169C43.0165 6.86169 40.9559 7.6364 39.9255 9.33337V7.19371H35.1418V28H39.9623V20.8064C40.9926 22.5402 43.0533 23.278 44.7828 23.278C48.7937 23.278 51.6639 20.1792 51.6639 15.0514C51.6271 9.92362 48.7569 6.86169 44.746 6.86169ZM43.1637 19.5521C41.287 19.5521 39.7047 18.2978 39.7047 15.0514C39.7047 11.805 41.287 10.5876 43.1637 10.5876C45.0772 10.5876 46.6595 12.1371 46.6595 15.0514C46.6595 17.9658 45.0772 19.5521 43.1637 19.5521Z"
        fill="#020203" />
    <path
        d="M66.2723 14.3875C67.4498 13.7603 68.149 12.6536 68.149 11.2517C68.149 7.96848 65.61 7.12 62.1142 7.12H53.4668V22.8354H62.4086C66.2355 22.8354 68.7746 21.4705 68.7746 17.929C68.7746 16.0106 67.7442 14.9039 66.2723 14.3875ZM58.2873 10.3664H61.5254C62.8134 10.3664 63.5493 10.9566 63.5493 11.842C63.5493 12.8012 62.8134 13.4283 61.5254 13.4283H58.2873V10.3664ZM61.7094 19.589H58.2873V16.1213H61.7094C63.2917 16.1213 64.1013 16.7485 64.1013 17.8552C64.1013 18.8881 63.2917 19.589 61.7094 19.589Z"
        fill="#020203" />
    <path
        d="M77.7532 12.0265H75.5822V7.12H70.7617V22.8354H78.0108C82.3897 22.8354 84.3768 21.4705 84.3768 17.3387C84.3768 13.6865 82.3897 12.0265 77.7532 12.0265ZM77.4957 19.589H75.619V15.2359H77.4957C79.078 15.2359 79.8875 15.8631 79.8875 17.2649C79.8875 18.8881 79.078 19.589 77.4957 19.589Z"
        fill="#020203" />
    <path d="M90.338 7.12H85.5176V22.8354H90.338V7.12Z" fill="#020203" />
    <path
        d="M103.732 7.12L97.403 16.4533V7.12H92.6929V22.8354H97.3294L103.695 13.6496V22.8354H108.405V7.12H103.732Z"
        fill="#020203" />
    <path
        d="M136.924 16.4533V7.12H132.214V22.8354H136.85L143.216 13.6496V22.8354H147.926V7.12H143.253L136.924 16.4533Z"
        fill="#020203" />
    <path d="M150.097 7.12V11.178H155.138V22.7616H159.959V11.178H165V7.12H150.097Z" fill="#020203" />
    <path
        d="M104.137 1.99209H96.9618C96.925 1.99209 96.8882 1.9552 96.8882 1.91831V0H104.248V1.91831C104.211 1.9552 104.174 1.99209 104.137 1.99209Z"
        fill="#020203" />
</svg>