<svg width="36" height="35" viewBox="0 0 36 35" fill="none" xmlns="http://www.w3.org/2000/svg">
    <path
        d="M30.3553 5.38521C27.0519 1.93716 22.4813 -0.00875654 17.7061 2.96247e-05C8.05614 -0.0121246 0.22335 7.80091 0.211195 17.451C0.205192 22.2226 2.15089 26.7891 5.59638 30.09C5.60641 30.1001 5.61015 30.1151 5.6201 30.1239C5.72129 30.2213 5.83127 30.3039 5.93378 30.3976C6.21493 30.6475 6.49609 30.9061 6.79225 31.1472C6.95092 31.2722 7.11589 31.3973 7.27834 31.5122C7.55827 31.7208 7.83817 31.9295 8.13054 32.122C8.32926 32.247 8.53418 32.3718 8.7378 32.4969C9.00769 32.6594 9.2764 32.8229 9.55507 32.9717C9.79127 33.0967 10.0324 33.204 10.2723 33.3178C10.5347 33.4428 10.7934 33.5677 11.062 33.68C11.3307 33.7926 11.6006 33.8801 11.873 33.9775C12.1454 34.075 12.3803 34.165 12.6415 34.2449C12.9364 34.3338 13.2388 34.4024 13.5387 34.4761C13.7886 34.5374 14.031 34.6074 14.2885 34.6573C14.6333 34.726 14.9832 34.7697 15.3331 34.8174C15.5494 34.8473 15.7605 34.8897 15.9791 34.9111C16.5515 34.9673 17.1287 34.9986 17.711 34.9986C18.2934 34.9986 18.8707 34.9673 19.4429 34.9111C19.6617 34.8897 19.8728 34.8473 20.089 34.8174C20.4389 34.7697 20.7887 34.726 21.1336 34.6573C21.3835 34.6074 21.6335 34.5323 21.8834 34.4761C22.1832 34.4024 22.4858 34.3336 22.7805 34.2449C23.0417 34.165 23.2941 34.0676 23.5492 33.9775C23.8041 33.8875 24.0938 33.7901 24.36 33.68C24.6262 33.5702 24.8874 33.4415 25.1499 33.3178C25.3898 33.204 25.6309 33.0965 25.867 32.9717C26.1458 32.8229 26.4143 32.6592 26.6842 32.4969C26.888 32.3718 27.0929 32.2581 27.2917 32.122C27.5839 31.9295 27.8639 31.7208 28.1437 31.5122C28.3063 31.3872 28.4712 31.2748 28.6298 31.1472C28.926 30.9098 29.2071 30.6574 29.4883 30.3976C29.5908 30.3039 29.7008 30.2215 29.8019 30.1239C29.812 30.1151 29.8157 30.1001 29.8257 30.09C36.7942 23.4142 37.0312 12.3535 30.3553 5.38521ZM27.5468 28.7818C27.3193 28.9817 27.0844 29.1717 26.847 29.3554C26.7072 29.4629 26.5672 29.5691 26.4233 29.6716C26.1971 29.8353 25.9673 29.9901 25.7336 30.1388C25.5636 30.2475 25.39 30.3525 25.215 30.455C24.9951 30.58 24.7713 30.7049 24.5451 30.8299C24.3452 30.9324 24.1415 31.0286 23.9367 31.1235C23.7318 31.2186 23.5054 31.3197 23.2844 31.4086C23.0631 31.4972 22.8282 31.5808 22.597 31.6584C22.3858 31.7309 22.1747 31.8058 21.961 31.8696C21.7111 31.9444 21.45 32.0057 21.1914 32.0683C20.9887 32.1157 20.7889 32.1694 20.5839 32.2095C20.2878 32.267 19.9854 32.3069 19.6819 32.3481C19.5094 32.3707 19.3382 32.402 19.1644 32.4195C18.6846 32.4655 18.1985 32.4932 17.7074 32.4932C17.2163 32.4932 16.7302 32.4657 16.2503 32.4195C16.0767 32.402 15.9055 32.3707 15.733 32.3481C15.4294 32.3069 15.127 32.267 14.8308 32.2095C14.6259 32.1694 14.4259 32.1157 14.2235 32.0683C13.9648 32.0057 13.7074 31.9433 13.4538 31.8696C13.2401 31.8058 13.0289 31.7309 12.8177 31.6584C12.5866 31.5785 12.3554 31.4972 12.1304 31.4086C11.9055 31.3197 11.6931 31.2223 11.4781 31.1235C11.2632 31.0249 11.0695 30.9324 10.8696 30.8299C10.6435 30.7124 10.4198 30.5888 10.1998 30.455C10.0249 30.3525 9.85115 30.2475 9.68123 30.1388C9.44759 29.9901 9.21762 29.8353 8.99144 29.6716C8.8477 29.5691 8.70778 29.4629 8.5678 29.3554C8.33035 29.1717 8.09546 28.9805 7.86805 28.7818C7.81307 28.7406 7.76305 28.6881 7.70939 28.6404C7.76525 24.3897 10.4961 20.6363 14.5234 19.2748C16.5371 20.2327 18.8751 20.2327 20.8888 19.2748C24.9161 20.6363 27.6469 24.3897 27.7029 28.6404C27.6504 28.6881 27.6004 28.7355 27.5468 28.7818ZM13.3487 10.019C14.7017 7.61281 17.7491 6.759 20.1553 8.112C22.5616 9.46501 23.4154 12.5124 22.0625 14.9186C21.6135 15.717 20.9537 16.3767 20.1553 16.8257C20.1491 16.8257 20.1415 16.8257 20.1342 16.8332C19.8028 17.0176 19.4526 17.1659 19.0895 17.2755C19.0245 17.2943 18.9645 17.3193 18.8958 17.3355C18.7708 17.368 18.6396 17.3905 18.5109 17.413C18.2685 17.4554 18.0233 17.48 17.7774 17.4867H17.6349C17.389 17.48 17.1438 17.4554 16.9014 17.413C16.7764 17.3905 16.644 17.368 16.5166 17.3355C16.4503 17.3193 16.3916 17.2943 16.3229 17.2755C15.9598 17.1659 15.6096 17.0177 15.2782 16.8332L15.2558 16.8257C12.8495 15.4727 11.9957 12.4253 13.3487 10.019ZM29.9196 26.1626C29.1177 22.4225 26.6549 19.2516 23.2293 17.5493C26.0295 14.499 25.8267 9.75613 22.7765 6.9559C19.726 4.15566 14.9832 4.35849 12.183 7.40882C9.55052 10.2765 9.55052 14.6817 12.183 17.5493C8.7575 19.2517 6.29459 22.4225 5.4927 26.1626C0.701024 19.4132 2.2881 10.0573 9.03756 5.26559C15.787 0.473897 25.143 2.06097 29.9347 8.81043C31.7359 11.3477 32.7029 14.3826 32.7013 17.4942C32.7013 20.6031 31.7287 23.6341 29.9196 26.1626Z"
        fill="#352C85" />
</svg>
    